<svg width="595" height="623" viewBox="0 0 595 623" fill="none" xmlns="http://www.w3.org/2000/svg">
<circle cx="299" cy="276" r="245.5" fill="white" stroke="#10AF13" stroke-width="9"/>
<rect x="154" y="214" width="291" height="232" fill="#10AF13"/>
<path d="M294 85L508.774 208H79.2257L294 85Z" fill="#10AF13"/>
<path d="M294 330L79.2257 207L508.774 207L294 330Z" fill="#10AF13"/>
<line x1="294" y1="209" x2="509" y2="209" stroke="white" stroke-width="10"/>
<rect width="269.054" height="33.9332" transform="matrix(0.867625 -0.497219 0.461958 0.886902 275.795 338.488)" fill="white"/>
<rect width="168.706" height="73.2818" transform="matrix(0.867625 -0.497219 0.461958 0.886902 298.708 445.99)" fill="white"/>
<rect width="262.598" height="37.2821" transform="matrix(0.8676 0.497263 -0.462001 0.886879 80.7961 204.998)" fill="white"/>
<rect width="160.958" height="76.4928" transform="matrix(0.8676 0.497263 -0.462001 0.886879 153.223 366.264)" fill="white"/>
<line x1="488" y1="214" x2="488" y2="380" stroke="#10AF13" stroke-width="10"/>
<rect x="285" y="357" width="18" height="122" fill="white"/>
</svg>
